<svg xmlns="http://www.w3.org/2000/svg" height="20" viewBox="0 0 20 20" width="20" fill="#000" class="main-footer__social__icon"><path d="m10 19c-4.96125 0-9-4.03875-9-9s4.03875-9 9-9 9 4.03875 9 9-4.03875 9-9 9zm7.59-7.7685c-.2625-.0825-2.3775-.71475-4.788-.3285 1.005 2.763 1.41525 5.013 1.494 5.481 1.725-1.16625 2.952-3.015 3.29625-5.1525zm-4.58625 5.856c-.11475-.675-.5625-3.024-1.6425-5.8275l-.0495.015c-4.3425 1.51125-5.895 4.51875-6.03 4.8 1.2975 1.0185 2.94 1.6245 4.7175 1.6245 1.065 0 2.0775-.2175 3-.6105zm-8.715-1.935c.174-.3 2.28375-3.79125 6.249-5.07375.10125-.03375.2025-.063.30375-.09-.195-.43875-.405-.87525-.624-1.305-3.84 1.1475-7.563 1.09875-7.9005 1.09125l-.003.234c0 1.97475.7485 3.77775 1.9755 5.14125zm-1.815-6.71625c.345.006 3.51225.0195 7.10775-.936-1.2735-2.2635-2.6475-4.1685-2.85-4.446-2.151 1.0125-3.7575 2.9925-4.257 5.3775zm5.72625-5.89725c.2115.285 1.60875 2.1855 2.8665 4.5 2.73375-1.02375 3.8925-2.58 4.02975-2.7765-1.3575-1.2075-3.1425-1.9395-5.09625-1.9395-.61875 0-1.2225.075-1.8.21375zm7.75125 2.61225c-.1635.2175-1.45125 1.86975-4.293 3.03.18.3675.3525.73875.51 1.1145.06.135.1125.27.165.3975 2.5575-.3225 5.1.195 5.355.2475-.015-1.815-.66-3.48-1.7325-4.785z"></path></svg>